<svg xmlns="http://www.w3.org/2000/svg" width="28.974" height="29.082" viewBox="0 0 28.974 29.082"><defs><style>.a{fill:#289553;}</style></defs><g transform="translate(-61.786 437.876)"><path class="a" d="M27.521-365.55C32.5-370.526,29.232-376.872,23.7-376c-1.418.225-3.9,2.544-4.066,2.56-.738.071-1.416-2.312-2.379-2.018-3.757,1.147-14,11.82-15.551,15.474-.463,1.092,1.966,1.651,1.962,2.507,0,.815-4.248,3.1-2.02,7.472a5.728,5.728,0,0,0,7.5,2.436c.74-.377,1.7-1.87,2.407-2.022.166-.036,1.939,1.7,3.542,1.167,2.963-.989,13.606-11.372,13.743-14.414a3.61,3.61,0,0,0-1.32-2.717m-6.188-8.177c4.917-3.573,10.418,1.859,6.478,6.478-.111.131-.842,1-1,1-.024,0-6.477-6.438-6.477-6.479,0-.171.861-.861.995-.995m-4.017-.621c.21.21.662.335.631.631-.016.151-.988.7-1.129.8a43.7,43.7,0,0,0-5.754,4.6,66.824,66.824,0,0,0-7.409,8.787c-.089.125-.113.36-.266.376-1.964.211,2.625-5.13,3.2-5.822a51.471,51.471,0,0,1,10.726-9.367M9.856-349.294c-4.917,3.573-10.418-1.859-6.478-6.478.111-.131.842-1,1-1,.028,0,6.477,6.442,6.478,6.479,0,.171-.861.861-1,.995m17.636-12.524c-1.889,2.552-10.565,13.283-13.829,12.5-1.5-.358-4.036-3.606-5.176-4.746-.471-.471-4.362-4.155-4.375-4.375-.1-1.693,12.865-14.661,14.558-14.558.166.01,2.991,2.991,3.349,3.349,1.578,1.578,4.515,3.8,5.568,5.677A2.2,2.2,0,0,1,27.492-361.818Z" transform="translate(60.786 -61.799)"/><path class="a" d="M9.031-106.289a.662.662,0,0,0-.126-.092.662.662,0,0,0-.148-.048.661.661,0,0,0-.156,0,.662.662,0,0,0-.148.048.662.662,0,0,0-.126.092L1.144-99.107a.662.662,0,0,0-.092.126A.662.662,0,0,0,1-98.833a.662.662,0,0,0,0,.156.662.662,0,0,0,.048.148.662.662,0,0,0,.092.126.662.662,0,0,0,.126.092.662.662,0,0,0,.148.048.662.662,0,0,0,.156,0,.662.662,0,0,0,.148-.048.662.662,0,0,0,.126-.092l7.182-7.182a.662.662,0,0,0,.051-.059.662.662,0,0,0,.041-.067.663.663,0,0,0,.03-.072.663.663,0,0,0,.018-.076.663.663,0,0,0,.006-.078.663.663,0,0,0-.006-.078.663.663,0,0,0-.018-.076.663.663,0,0,0-.03-.072.663.663,0,0,0-.041-.067A.663.663,0,0,0,9.031-106.289Z" transform="translate(71.294 -320.963)"/><path class="a" d="M5.641-71.521l-4.49,4.49a.662.662,0,0,0-.068.081.662.662,0,0,0-.049.093.663.663,0,0,0-.028.1A.663.663,0,0,0,1-66.651a.663.663,0,0,0,.016.1.663.663,0,0,0,.037.1.663.663,0,0,0,.057.088.664.664,0,0,0,.074.074.663.663,0,0,0,.088.057.662.662,0,0,0,.1.037.662.662,0,0,0,.1.016.662.662,0,0,0,.105-.006.662.662,0,0,0,.1-.028.662.662,0,0,0,.093-.049.662.662,0,0,0,.081-.068l4.489-4.489a.662.662,0,0,0,.086-.126.662.662,0,0,0,.044-.146.662.662,0,0,0,0-.153.662.662,0,0,0-.048-.145.662.662,0,0,0-.09-.123.662.662,0,0,0-.123-.09.662.662,0,0,0-.145-.049.662.662,0,0,0-.153,0,.662.662,0,0,0-.146.044A.662.662,0,0,0,5.641-71.521Z" transform="translate(75.325 -351.693)"/><path class="a" d="M6.344-71.654a.662.662,0,0,0-.126-.092.662.662,0,0,0-.148-.048.662.662,0,0,0-.156,0,.662.662,0,0,0-.148.048.662.662,0,0,0-.126.092l-4.489,4.49a.663.663,0,0,0-.068.081.663.663,0,0,0-.049.093.663.663,0,0,0-.028.1A.663.663,0,0,0,1-66.784a.663.663,0,0,0,.016.1.663.663,0,0,0,.037.1.663.663,0,0,0,.057.088.662.662,0,0,0,.074.074.663.663,0,0,0,.088.057.663.663,0,0,0,.1.037.662.662,0,0,0,.1.016.662.662,0,0,0,.105-.006.662.662,0,0,0,.1-.028.664.664,0,0,0,.093-.049.663.663,0,0,0,.081-.068l4.489-4.489a.662.662,0,0,0,.051-.059.663.663,0,0,0,.041-.067.664.664,0,0,0,.03-.072.663.663,0,0,0,.018-.076A.663.663,0,0,0,6.49-71.3a.663.663,0,0,0-.006-.078.663.663,0,0,0-.018-.076.663.663,0,0,0-.03-.072.662.662,0,0,0-.041-.067A.663.663,0,0,0,6.344-71.654Z" transform="translate(69.94 -356.945)"/></g></svg>